# xmcd
#
# Track frame offsets:
#	150
#	9822
#	15722
#	32750
#	49472
#	67411
#	94029
#	106506
#	119954
#	123316
#	134134
#	150440
#	166533
#	175546
#	188117
#	205347
#	217728
#	228713
#	247354
#	263896
#	277505
#
# Disc length: 3990 seconds
#
# Revision: 2
# Processed by: cddbd v1.5.2PL0 Copyright (c) Steve Scherf et al.
# Submitted via: EZCDAudioConverter 2.1.7.1
#
DISCID=240f9415
DTITLE=Cosmic Dealer - Crystallization 1/2
DYEAR=1971
DGENRE=
TTITLE0=Daybreak
TTITLE1=If There Is Nothing Behind The Hills
TTITLE2=Child Of The Golden Sun
TTITLE3=Swingin' Joe Brown
TTITLE4=I Had A Friend
TTITLE5=Crystallization
TTITLE6=The Scene
TTITLE7=The Fly
TTITLE8=One Night
TTITLE9=Find Your Way
TTITLE10=Flying In The Winter
TTITLE11=Head In The Clouds
TTITLE12=Illusions
TTITLE13=The Scene [Single Mix]
TTITLE14=Child Of The Golden Sun [Single Mix]
TTITLE15=Head In The Clouds [Single Mix]
TTITLE16=Find Your Way [Single Mix]
TTITLE17=Winterwind (We'll Be Walking) [Demo]
TTITLE18=Child Of Tomorrow [Demo]
TTITLE19=You're So Good [Demo]
TTITLE20=Sinner's Confession [Demo]
EXTD=
EXTT0=
EXTT1=
EXTT2=
EXTT3=
EXTT4=
EXTT5=
EXTT6=
EXTT7=
EXTT8=
EXTT9=
EXTT10=
EXTT11=
EXTT12=
EXTT13=
EXTT14=
EXTT15=
EXTT16=
EXTT17=
EXTT18=
EXTT19=
EXTT20=
PLAYORDER=
